<svg width="479" height="747" viewBox="0 0 479 747" fill="none" xmlns="http://www.w3.org/2000/svg">
<path d="M239.212 0.006C157.868 0.006 91.4252 66.454 91.4252 147.793C91.4252 196.022 114.925 238.861 150.899 265.871C62.5385 301.011 0.00520833 387.153 0.00520833 488.031V537.479H0C0.010416 542.755 1.81255 547.875 5.10415 551.995C8.40108 556.115 12.9948 559.001 18.1353 560.178C24.2395 443.74 121.343 350.044 239.202 350.044C357.061 350.044 454.175 443.742 460.269 560.178H460.274C465.399 558.985 469.972 556.089 473.248 551.969C476.524 547.85 478.316 542.745 478.321 537.48V488.032C478.321 387.177 415.831 301.072 327.521 265.912C363.505 238.901 386.994 196.027 386.994 147.787C386.994 66.4427 320.546 0 239.208 0L239.212 0.006ZM239.212 396.726C142.837 396.726 64.2119 475.351 64.2119 571.726C64.2119 668.101 142.837 746.726 239.212 746.726C335.587 746.726 414.212 668.101 414.212 571.726C414.212 475.351 335.587 396.726 239.212 396.726ZM242.722 479.581C246.774 479.888 250.853 480.555 254.889 481.633C287.186 490.263 308.326 521.857 303.972 555.007C300.472 581.643 281.253 602.81 256.529 610.195V641.455V641.45C256.67 647.726 254.269 653.799 249.878 658.289C245.487 662.773 239.472 665.305 233.195 665.305C226.914 665.305 220.898 662.773 216.507 658.289C212.117 653.799 209.721 647.726 209.861 641.45V591.002C209.809 585.747 211.533 580.633 214.747 576.481C217.966 572.33 222.492 569.382 227.585 568.122C230.799 566.918 234.242 566.434 237.658 566.71C248.028 566.71 256.268 559.262 257.622 548.981C258.971 538.7 252.825 529.418 242.81 526.741C232.795 524.063 222.841 529.053 218.884 538.637C216.519 544.387 211.967 548.96 206.222 551.345C200.483 553.73 194.029 553.736 188.285 551.355C182.54 548.975 177.978 544.413 175.608 538.663C173.233 532.918 173.243 526.465 175.634 520.725C186.806 493.689 214.368 477.433 242.716 479.575L242.722 479.581Z" fill="black"/>
</svg>
