<svg width="628" height="717" viewBox="0 0 628 717" fill="none" xmlns="http://www.w3.org/2000/svg">
<path d="M134.4 280.005V302.407C134.4 308.589 139.416 313.605 145.598 313.605H347.198C350.167 313.605 353.021 312.428 355.12 310.329C357.219 308.225 358.401 305.376 358.401 302.407V280.005C358.401 277.037 357.219 274.188 355.12 272.089C353.021 269.985 350.167 268.808 347.198 268.808H145.598C142.629 268.808 139.781 269.985 137.676 272.089C135.577 274.188 134.4 277.037 134.4 280.005Z" fill="black"/>
<path fill-rule="evenodd" clip-rule="evenodd" d="M403.2 134.405H89.6C65.8347 134.405 43.048 143.848 26.24 160.651C9.43732 177.453 0 200.244 0 224.005V627.205C0 650.965 9.43746 673.757 26.24 690.56C43.0467 707.363 65.8333 716.805 89.6 716.805H403.2C426.965 716.805 449.752 707.363 466.56 690.56C483.363 673.757 492.8 650.967 492.8 627.205V224.005C492.8 200.245 483.363 177.453 466.56 160.651C449.753 143.848 426.967 134.405 403.2 134.405ZM96.16 230.567C100.358 226.364 106.056 224.004 111.999 224.004H380.799C386.741 224.004 392.439 226.363 396.637 230.567C400.84 234.764 403.2 240.462 403.2 246.405V336.004C403.2 341.947 400.841 347.645 396.637 351.843C392.44 356.046 386.741 358.405 380.799 358.405H111.999C106.056 358.405 100.358 356.046 96.16 351.843C91.9569 347.645 89.5975 341.947 89.5975 336.004V246.405C89.5975 240.463 91.9568 234.765 96.16 230.567ZM358.4 403.207H134.4C122.515 403.207 111.119 407.925 102.717 416.326C94.3163 424.727 89.5976 436.124 89.5976 448.004C89.5976 459.884 94.3164 471.28 102.717 479.681C111.118 488.087 122.515 492.806 134.4 492.806H358.4C370.28 492.806 381.676 488.087 390.077 479.681C398.478 471.28 403.197 459.884 403.197 448.004C403.197 436.123 398.478 424.728 390.077 416.326C381.676 407.925 370.28 403.207 358.4 403.207ZM358.4 537.607H134.4C122.515 537.607 111.119 542.331 102.717 550.732C94.3163 559.133 89.5976 570.529 89.5976 582.409C89.5976 594.289 94.3164 605.685 102.717 614.086C111.118 622.487 122.515 627.211 134.4 627.211H358.4C370.28 627.211 381.676 622.487 390.077 614.086C398.478 605.685 403.197 594.289 403.197 582.409C403.197 570.529 398.478 559.133 390.077 550.732C381.676 542.331 370.28 537.607 358.4 537.607Z" fill="black"/>
<path d="M537.6 582.405V179.205C537.6 155.44 528.158 132.648 511.355 115.845C494.552 99.0427 471.762 89.6 448 89.6H179.2C179.2 65.84 188.643 43.048 205.446 26.2453C222.248 9.44266 245.039 0 268.8 0H537.6C561.366 0 584.152 9.44266 600.96 26.2453C617.763 43.048 627.2 65.8387 627.2 89.6V492.8C627.2 516.56 617.763 539.352 600.96 556.155C584.154 572.957 561.367 582.4 537.6 582.4V582.405Z" fill="black"/>
</svg>
