<svg width="654" height="654" viewBox="0 0 654 654" fill="none" xmlns="http://www.w3.org/2000/svg">
<path d="M140 427.214V436.131L151.667 441.964L163.333 436.131V427.214L151.667 421.381L140 427.214Z" fill="black"/>
<path d="M326.667 190.16L166.347 232.931C164.373 233.457 162.3 233.457 160.326 232.931L0.00585938 190.16V303.327H326.673L326.667 190.16ZM58.3333 268.327H23.3333V244.993H58.3333V268.327Z" fill="black"/>
<path d="M210 373.334H0V490.001H210V373.334ZM93.3333 466.667H23.3333V443.334H93.3333V466.667ZM93.3333 420.001H23.3333V396.667H93.3333V420.001ZM186.667 443.334C186.693 447.777 184.187 451.85 180.214 453.834L156.88 465.501C153.599 467.141 149.734 467.141 146.453 465.501L123.12 453.834C119.146 451.85 116.641 447.777 116.667 443.334V420.001C116.641 415.558 119.146 411.485 123.12 409.501L146.453 397.834C149.734 396.193 153.599 396.193 156.88 397.834L180.214 409.501C184.188 411.485 186.693 415.558 186.667 420.001V443.334Z" fill="black"/>
<path d="M490 93.334H571.667V350.001H490V93.334Z" fill="black"/>
<path d="M653.333 385.001C653.333 381.907 652.104 378.938 649.917 376.751C647.729 374.563 644.76 373.334 641.667 373.334H630V396.667H641.667C644.76 396.667 647.729 395.438 649.917 393.251C652.104 391.063 653.333 388.094 653.333 385.001Z" fill="black"/>
<path d="M420 73.2554V55.0781L396.666 47.2969L373.333 55.0781V73.2554L396.666 81.0366L420 73.2554Z" fill="black"/>
<path d="M326.667 166.039V139.998H0V166.039L163.333 209.591L326.667 166.039Z" fill="black"/>
<path d="M466.667 373.334H413.161L401.495 385.001L413.161 396.667H606.668V373.334H466.667Z" fill="black"/>
<path d="M490 571.667C490 574.761 488.771 577.73 486.584 579.917C484.396 582.105 481.427 583.334 478.334 583.334H186.667V653.334H571.667V513.334H490V571.667Z" fill="black"/>
<path d="M641.667 466.666H630V489.999H641.667C648.109 489.999 653.333 484.775 653.333 478.333C653.333 471.89 648.109 466.666 641.667 466.666Z" fill="black"/>
<path d="M401.493 478.333L413.16 489.999H606.667V466.666H413.16L401.493 478.333Z" fill="black"/>
<path d="M466.667 513.333H408.334C405.24 513.333 402.271 512.104 400.084 509.917L376.75 486.583C372.198 482.026 372.198 474.641 376.75 470.083L400.084 446.75C402.271 444.563 405.24 443.333 408.334 443.333H571.667V420H408.334C405.24 420 402.271 418.771 400.084 416.583L376.75 393.25C372.198 388.693 372.198 381.307 376.75 376.75L400.084 353.417C402.271 351.229 405.24 350 408.334 350H466.667V0H81.667V116.667H338.334C341.427 116.667 344.396 117.896 346.584 120.083C348.771 122.271 350 125.24 350 128.333V315C350 318.094 348.771 321.063 346.584 323.25C344.396 325.437 341.427 326.667 338.334 326.667H81.667V350H221.667C224.761 350 227.73 351.229 229.917 353.417C232.104 355.604 233.334 358.573 233.334 361.667V501.667C233.334 504.76 232.104 507.729 229.917 509.917C227.73 512.104 224.761 513.333 221.667 513.333H81.667V560H466.667V513.333ZM350 81.6667V46.6667C350 41.6407 353.214 37.1823 357.98 35.5937L392.98 23.9271C395.375 23.1302 397.959 23.1302 400.354 23.9271L435.354 35.5937C440.12 37.1823 443.334 41.6407 443.334 46.6667V81.6667C443.334 86.6927 440.12 91.1511 435.354 92.7396L400.354 104.406C397.959 105.203 395.375 105.203 392.98 104.406L357.98 92.7396C353.214 91.1511 350 86.6927 350 81.6667Z" fill="black"/>
</svg>
