<svg width="16" height="20" viewBox="0 0 16 20" fill="none" xmlns="http://www.w3.org/2000/svg">
<path d="M14 20H2C1.45 20 0.979002 19.804 0.587002 19.412C0.195002 19.02 -0.000664969 18.5493 1.69779e-06 18V2C1.69779e-06 1.45 0.196001 0.979002 0.588001 0.587002C0.980001 0.195002 1.45067 -0.000664969 2 1.69779e-06H9.175C9.44167 1.69779e-06 9.696 0.0500018 9.938 0.150002C10.18 0.250002 10.3923 0.391668 10.575 0.575002L15.425 5.425C15.6083 5.60834 15.75 5.821 15.85 6.063C15.95 6.305 16 6.559 16 6.825V18C16 18.55 15.804 19.021 15.412 19.413C15.02 19.805 14.5493 20.0007 14 20ZM8 15.75C9.3 15.75 10.4167 15.2833 11.35 14.35C12.2833 13.4167 12.75 12.3 12.75 11C12.75 9.7 12.2833 8.58333 11.35 7.65C10.4167 6.71667 9.3 6.25 8 6.25C7.36667 6.25 6.775 6.36667 6.225 6.6C5.675 6.83334 5.18334 7.15 4.75 7.55V6.75C4.75 6.53334 4.679 6.35434 4.537 6.213C4.395 6.07167 4.216 6.00067 4 6C3.78334 6 3.60433 6.071 3.463 6.213C3.32167 6.355 3.25067 6.534 3.25 6.75V9.25C3.25 9.53334 3.346 9.771 3.538 9.963C3.73 10.155 3.96734 10.2507 4.25 10.25H6.75C6.96667 10.25 7.14567 10.179 7.287 10.037C7.42833 9.895 7.49934 9.716 7.5 9.5C7.5 9.28334 7.429 9.10434 7.287 8.963C7.145 8.82167 6.966 8.75067 6.75 8.75H5.7C5.98334 8.45 6.325 8.20833 6.725 8.025C7.125 7.84167 7.55 7.75 8 7.75C8.9 7.75 9.66667 8.06667 10.3 8.7C10.9333 9.33334 11.25 10.1 11.25 11C11.25 11.9 10.9333 12.6667 10.3 13.3C9.66667 13.9333 8.9 14.25 8 14.25C7.35 14.25 6.77067 14.079 6.262 13.737C5.75334 13.395 5.35767 12.9493 5.075 12.4C5.025 12.2833 4.94167 12.1873 4.825 12.112C4.70834 12.0367 4.58334 11.9993 4.45 12C4.13334 12 3.896 12.1083 3.738 12.325C3.58 12.5417 3.56733 12.7833 3.7 13.05C4.08333 13.85 4.65834 14.5 5.425 15C6.19167 15.5 7.05 15.75 8 15.75Z" fill="black"/>
</svg>
