<svg width="656" height="710" viewBox="0 0 656 710" fill="none" xmlns="http://www.w3.org/2000/svg">
<path d="M354.224 698.882C354.224 704.856 358.703 709.335 364.677 709.335H467.719C473.693 709.335 478.172 704.856 478.172 698.882V643.628H354.224L354.224 698.882Z" fill="black"/>
<path d="M652.144 321.069C648.41 315.095 642.436 311.361 634.972 309.871C626.014 308.377 616.305 312.111 610.332 319.58L564.785 384.533C566.28 386.028 567.025 387.517 568.52 389.012C580.468 406.934 578.973 430.08 564.785 446.507L561.801 450.241C543.134 471.148 522.973 491.309 501.322 509.225L483.401 523.413C478.172 527.892 469.964 527.148 465.48 521.918C461 516.689 461.745 508.481 466.974 503.997L484.896 489.809C505.802 472.637 525.213 453.97 542.39 433.809L545.375 430.075C552.094 422.606 552.094 412.153 546.87 403.939C543.885 399.459 538.656 395.725 532.682 394.98C526.708 394.236 521.484 394.98 516.255 398.715L417.692 467.412C406.494 474.881 398.28 486.824 394.547 499.516L357.959 618.24H488.626L575.986 565.224C591.668 555.516 602.122 541.328 606.6 524.156L655.131 341.969C656.626 333.761 655.881 327.043 652.147 321.068L652.144 321.069Z" fill="black"/>
<path d="M261.637 498.776C257.903 486.083 249.689 474.88 238.492 466.672L139.185 397.235C134.706 394.25 128.732 392.755 122.758 393.5C116.785 394.245 112.305 397.979 108.57 402.459C104.091 411.417 104.836 421.871 110.81 429.339L113.794 433.073C130.966 453.234 150.382 471.901 171.289 489.073L189.21 503.261C194.44 507.74 195.184 515.954 190.705 521.182C186.226 526.411 178.013 527.156 172.784 522.677L154.863 508.489C133.212 490.568 112.3 471.156 94.3839 449.505L91.3995 445.771C77.2115 429.344 75.7168 406.197 87.6651 388.276C88.4099 386.781 89.9047 385.292 91.3995 383.797L45.1075 319.583C40.6283 312.865 32.4148 309.13 24.9462 309.13H21.2118C14.493 310.625 8.51909 314.36 4.03976 320.328C0.305357 326.302 -1.18944 333.021 1.05536 340.49L49.586 522.676C54.0652 539.848 65.2687 554.78 80.2007 563.744L167.561 616.76L298.227 616.75L261.637 498.776Z" fill="black"/>
<path d="M177.264 698.882C177.264 704.856 181.743 709.335 187.717 709.335H290.759C296.733 709.335 301.212 704.856 301.212 698.882V643.628H177.264L177.264 698.882Z" fill="black"/>
<path d="M150.384 216.536V330.03C150.384 350.192 166.81 366.618 186.972 366.618H469.212C489.373 366.618 505.8 350.192 505.8 330.03V216.536C466.226 223.254 422.92 226.244 384.841 228.484V230.723C384.841 253.124 366.174 271.791 343.773 271.791H312.413C290.012 271.791 271.345 253.124 271.345 230.723V228.484C233.262 226.244 189.954 223.26 150.381 216.536H150.384Z" fill="black"/>
<path d="M132.464 183.682C168.303 190.401 214.6 196.375 272.091 199.365C272.091 176.964 290.012 159.048 313.159 159.048H344.519C366.92 159.048 384.836 176.969 385.587 199.365C442.332 197.125 488.628 191.151 525.213 183.682C530.442 182.938 533.427 178.453 533.427 173.229V116.484C533.427 96.3227 517 79.896 496.839 79.896H414.708V52.2653C414.708 23.1453 390.812 0 362.443 0H295.246C266.126 0 242.98 23.896 242.98 52.2653V79.1453H160.095C139.934 79.1453 123.507 95.572 123.507 115.733V172.479C123.507 178.453 127.241 182.932 132.47 183.682L132.464 183.682ZM283.291 52.2664C283.291 46.2924 288.52 41.0685 294.488 41.0685H361.686C367.66 41.0685 372.884 46.2977 372.884 52.2664V79.1464H283.29L283.291 52.2664Z" fill="black"/>
<path d="M343.771 242.669C350.489 242.669 355.718 237.44 355.718 230.721V200.107C355.718 193.388 350.489 188.159 343.771 188.159H313.156C306.437 188.159 301.208 193.388 301.208 200.107V230.721C301.208 237.44 306.437 242.669 313.156 242.669H343.771Z" fill="black"/>
</svg>
