<svg width="669" height="669" viewBox="0 0 669 669" fill="none" xmlns="http://www.w3.org/2000/svg">
<path d="M77.7752 97.5411C77.7752 69.4424 100.551 46.6664 128.645 46.6664C149.447 46.6664 168.15 59.3331 175.879 78.6451L180.338 89.791C161.838 103.27 146.728 122.062 137.42 144.984C124.342 177.182 125.051 211.766 136.816 241.624C139.129 247.499 143.728 252.187 149.556 254.614C155.389 257.041 161.952 256.999 167.749 254.505L353.202 174.671C364.781 169.687 370.306 156.411 365.682 144.682C353.916 114.813 330.932 89.3485 299.343 75.8539C274.098 65.0727 247.316 63.6195 222.64 69.8799L219.213 61.3173C204.401 24.2867 168.536 0 128.651 0C74.7812 0 31.1145 43.672 31.1145 97.5413V311.115H23.3333C10.4479 311.115 0 321.563 0 334.448C0 347.333 10.4479 357.781 23.3333 357.781H31.1145V365.557V365.911V367.635V368.813C31.1145 380.484 31.1145 387.329 31.5989 394.963C36.0156 464.542 73.6096 528.79 128.104 570.803C127.677 571.475 127.281 572.178 126.917 572.907L95.8021 635.131C90.0417 646.652 94.7135 660.667 106.24 666.434C117.766 672.195 131.781 667.528 137.542 656.002L167.652 595.783C192.594 608.408 219.72 616.72 247.928 619.575C255.537 620.346 260.178 620.523 268.084 620.82L268.297 620.825C291.324 621.69 313.865 622.226 334.448 622.226C355.026 622.226 377.568 621.69 400.598 620.825L400.807 620.82C408.713 620.523 413.359 620.346 420.963 619.575C449.176 616.721 476.307 608.408 501.249 595.783L531.359 656.002C537.124 667.528 551.14 672.195 562.665 666.434C574.191 660.669 578.859 646.653 573.098 635.131L541.988 572.907C541.619 572.178 541.223 571.475 540.796 570.798C595.285 528.787 632.878 464.538 637.296 394.958C637.78 387.323 637.78 380.485 637.78 368.807V367.63C637.78 365.761 637.78 363.818 637.665 362.021C637.572 360.589 637.426 359.172 637.223 357.776H645.556C658.442 357.776 668.889 347.328 668.889 334.443C668.889 321.557 658.442 311.109 645.556 311.109H77.7827L77.7752 97.5411Z" fill="black"/>
</svg>
