<svg width="654" height="654" viewBox="0 0 654 654" fill="none" xmlns="http://www.w3.org/2000/svg">
<path d="M175.01 245.009H198.343V276.733L254.89 262.603L205.786 221.676H167.567L118.463 262.603L175.01 276.733V245.009Z" fill="black"/>
<path d="M478.344 326.676H519.505L502.729 284.301C501.771 281.895 501.646 279.234 502.375 276.744L530.76 179.676L478.344 195.359L478.344 326.676Z" fill="black"/>
<path d="M430.983 276.743C431.713 279.232 431.588 281.894 430.629 284.3L413.853 326.675H455.015V195.357L402.599 179.675L430.983 276.743Z" fill="black"/>
<path d="M385.01 396.676H560.01V513.343H385.01V396.676Z" fill="black"/>
<path d="M606.677 580.703V21.3027C577.718 15.8652 488.328 0 431.677 0C379.584 0 358.177 9.5104 338.344 28.2547V580.428C451.51 555.897 566.904 573.194 606.677 580.699V580.703ZM583.344 116.676H443.344V93.3427H583.344V116.676ZM547.526 334.049C548.948 337.643 548.5 341.706 546.329 344.898C544.157 348.096 540.542 350.008 536.677 350.008H396.677C392.813 350.008 389.198 348.096 387.026 344.898C384.855 341.706 384.407 337.643 385.828 334.049L407.459 279.44L374.162 165.544C372.964 161.44 374.104 157.013 377.141 153.997C380.177 150.987 384.615 149.877 388.709 151.101L466.678 174.435L544.647 151.101C548.741 149.877 553.179 150.987 556.215 153.997C559.251 157.013 560.392 161.44 559.194 165.544L525.897 279.435L547.526 334.049ZM501.677 46.676H583.344V70.0093H501.677V46.676ZM361.677 46.676H478.344V70.0093H361.677V46.676ZM361.677 93.3427H420.01V116.676H361.677V93.3427ZM361.677 373.343H583.344V536.676H361.677V373.343Z" fill="black"/>
<path d="M210.01 408.343H268.343V431.676H210.01V408.343Z" fill="black"/>
<path d="M202.116 198.343L239.45 105.009H133.908L171.242 198.343H202.116Z" fill="black"/>
<path d="M210.01 501.676H268.343V525.009H210.01V501.676Z" fill="black"/>
<path d="M93.3438 408.343H140.01V525.009H93.3438V408.343Z" fill="black"/>
<path d="M315.01 580.436V28.2894C295.177 9.54005 273.77 0.00805664 221.677 0.00805664C165.026 0.00805664 75.6368 15.8721 46.6768 21.3107V580.711C86.4474 573.206 201.85 555.919 315.01 580.44V580.436ZM291.677 455.009H186.677V385.009H291.677V455.009ZM291.677 361.676H210.01V338.343H291.677V361.676ZM85.8768 259.369L149.346 206.509L105.819 97.7067C104.366 94.1026 104.799 90.0141 106.981 86.7953C109.158 83.5817 112.793 81.6598 116.679 81.6755H140.012V58.3422H163.345V81.6755H210.012V58.3422H233.345V81.6755H256.679C260.548 81.6755 264.168 83.5922 266.34 86.7953C268.512 90.0035 268.955 94.0765 267.517 97.6702L224.012 206.509L287.501 259.405C290.882 262.223 292.387 266.697 291.402 270.983C290.418 275.269 287.105 278.639 282.835 279.697L189.501 303.03C187.642 303.493 185.694 303.493 183.829 303.03L90.4961 279.697C86.2305 278.639 82.918 275.27 81.9284 270.983C80.944 266.697 82.4544 262.223 85.8294 259.405L85.8768 259.369ZM70.0128 338.343H186.679V361.676H70.0128V338.343ZM163.346 548.343H70.0128V385.009H163.346V548.343ZM186.679 478.343H291.679V548.343H186.679V478.343Z" fill="black"/>
<path d="M641.677 46.676H630.01V595.009C630.01 598.567 628.39 601.931 625.609 604.145C622.828 606.358 619.182 607.186 615.718 606.384C614.239 606.046 465.038 572.458 329.505 606.327C327.646 606.806 325.698 606.806 323.838 606.327C188.145 572.426 39.1717 606.036 37.6251 606.384C34.1615 607.187 30.5157 606.358 27.7344 604.145C24.9532 601.931 23.3333 598.567 23.3333 595.009V46.676H11.6667C5.224 46.676 0 51.9 0 58.3427V618.343C0 621.436 1.22917 624.405 3.41667 626.593C5.60416 628.78 8.57293 630.009 11.6667 630.009H303.333C306.427 630.009 309.396 631.239 311.583 633.426C313.771 635.614 315 638.582 315 641.676C315 648.119 320.224 653.343 326.667 653.343C333.109 653.343 338.333 648.119 338.333 641.676C338.333 635.233 343.557 630.009 350 630.009H641.667C644.76 630.009 647.729 628.78 649.917 626.593C652.104 624.405 653.333 621.436 653.333 618.343V58.3427C653.333 55.249 652.104 52.2802 649.917 50.0927C647.729 47.9052 644.76 46.676 641.667 46.676H641.677Z" fill="black"/>
</svg>
