<svg width="414" height="727" viewBox="0 0 414 727" fill="none" xmlns="http://www.w3.org/2000/svg">
<path fill-rule="evenodd" clip-rule="evenodd" d="M51.8453 0C23.1267 0 0.00134277 28.6147 0.00134277 64.1667V90.4893H413.788V64.1667C413.788 28.6093 390.663 0 361.944 0H51.8453ZM141.72 37.584H271.865V37.5788C274.36 37.5475 276.766 38.5163 278.542 40.2715C280.318 42.0266 281.318 44.4173 281.318 46.9121C281.318 49.4069 280.318 51.8028 278.542 53.5528C276.766 55.308 274.36 56.2768 271.865 56.2455H141.72C139.225 56.2767 136.819 55.308 135.043 53.5528C133.267 51.8028 132.267 49.4069 132.267 46.9121C132.267 44.4173 133.267 42.0267 135.043 40.2715C136.819 38.5163 139.225 37.5475 141.72 37.5788V37.584ZM0 109.157V609.784H413.787V109.157H0ZM207.547 228.319C240.432 228.319 267.468 250.043 270.635 283.621C270.838 285.793 270.531 298.501 270.531 300.772C270.531 315.423 266.161 329.408 258.734 340.48C247.234 357.62 228.411 378.485 207.14 378.485C185.624 378.485 166.614 356.949 155.151 339.475C147.958 328.511 143.745 315.168 143.745 300.772C143.745 298.506 144.255 285.793 144.458 283.621C147.62 250.048 174.661 228.319 207.547 228.319ZM168.068 383.785C178.349 394.416 193.641 402.785 207.136 402.785C220.464 402.785 236.407 394.113 246.615 383.785C247.172 386.15 248.354 405.4 263.953 418.187C280.584 431.823 330.552 435.567 346.943 448.416C363.339 461.27 367.375 478.88 367.375 478.88H46.3747C46.3747 478.88 48.8435 461.536 64.7907 448.416C80.744 435.296 130.733 431.588 147.78 418.187C164.493 405.051 167.821 384.608 168.067 383.785H168.068ZM0.00134277 628.452V662.327C0.00134277 697.884 23.1267 726.509 51.8453 726.509H361.939C390.657 726.509 413.783 697.884 413.783 662.327V628.452H0.00134277ZM206.788 645.764C215.324 645.764 223.507 649.155 229.543 655.191C235.579 661.227 238.97 669.41 238.97 677.946C238.97 686.482 235.579 694.67 229.543 700.706C223.506 706.737 215.324 710.133 206.788 710.133C198.252 710.133 190.064 706.737 184.028 700.706C177.997 694.669 174.601 686.482 174.601 677.946C174.601 669.409 177.997 661.227 184.028 655.191C190.064 649.155 198.252 645.764 206.788 645.764Z" fill="black"/>
</svg>
