<svg width="419" height="553" viewBox="0 0 419 553" fill="none" xmlns="http://www.w3.org/2000/svg">
<path d="M339.213 24.4947V75.864C339.213 77.5828 340.557 78.9265 342.276 78.9265H393.645C394.916 78.9265 395.51 77.4317 394.614 76.5359L341.598 23.4479C340.702 22.552 339.207 23.2239 339.207 24.4166L339.213 24.4947Z" fill="black"/>
<path d="M0 522.671C0 539.171 13.364 552.535 29.864 552.535H388.264C404.764 552.535 418.128 539.171 418.128 522.671L418.133 112.671C418.133 110.504 416.414 108.791 414.253 108.791H324.28C316.066 108.791 309.348 102.072 309.348 93.8588V3.88548C309.348 1.71881 307.629 0.00520833 305.467 0.00520833L29.8674 0C13.3674 0 0.00335693 13.364 0.00335693 29.864L0 522.671ZM342.427 496.015H209.067C200.853 496.015 194.135 489.296 194.135 481.083C194.135 472.87 200.854 466.151 209.067 466.151H342.427C350.64 466.151 357.359 472.797 357.359 481.083C357.359 489.369 350.64 496.015 342.427 496.015ZM75.72 158.962H342.427C350.64 158.962 357.359 165.608 357.359 173.894C357.359 182.18 350.64 188.826 342.427 188.826H75.72C67.5064 188.826 60.788 182.107 60.788 173.894C60.788 165.681 67.5068 158.962 75.72 158.962ZM75.72 261.331H342.427C350.64 261.331 357.359 268.05 357.359 276.263C357.359 284.476 350.64 291.195 342.427 291.195H75.72C67.5064 291.195 60.788 284.476 60.788 276.263C60.788 268.05 67.5068 261.331 75.72 261.331ZM75.72 363.7H342.427C350.64 363.7 357.359 370.419 357.359 378.632C357.359 386.846 350.64 393.564 342.427 393.564H75.72C67.5064 393.564 60.788 386.919 60.788 378.632C60.788 370.346 67.5068 363.7 75.72 363.7Z" fill="black"/>
</svg>
