<svg width="16" height="16" viewBox="0 0 16 16" fill="none" xmlns="http://www.w3.org/2000/svg">
<path d="M9.76285 8L15.7454 2.01717C15.91 1.85248 16.0008 1.63276 16.001 1.39846C16.001 1.16404 15.9102 0.944061 15.7454 0.779628L15.2212 0.255496C15.0563 0.0904124 14.8366 0 14.6021 0C14.3679 0 14.1482 0.0904124 13.9833 0.255496L8.00078 6.23793L2.01795 0.255496C1.85339 0.0904124 1.63354 0 1.39912 0C1.16495 0 0.945102 0.0904124 0.780538 0.255496L0.256017 0.779628C-0.0853389 1.12098 -0.0853389 1.67621 0.256017 2.01717L6.23871 8L0.256017 13.9826C0.091323 14.1475 0.000650449 14.3672 0.000650449 14.6015C0.000650449 14.8358 0.091323 15.0555 0.256017 15.2204L0.780408 15.7445C0.944972 15.9095 1.16495 16 1.39899 16C1.63341 16 1.85326 15.9095 2.01782 15.7445L8.00065 9.76194L13.9832 15.7445C14.148 15.9095 14.3678 16 14.6019 16H14.6022C14.8365 16 15.0562 15.9095 15.221 15.7445L15.7453 15.2204C15.9098 15.0557 16.0006 14.8358 16.0006 14.6015C16.0006 14.3672 15.9098 14.1475 15.7453 13.9827L9.76285 8Z" fill="#1A1A1A" fill-opacity="0.4"/>
</svg>
