<svg width="20" height="20" viewBox="0 0 20 20" fill="none" xmlns="http://www.w3.org/2000/svg">
<path d="M10 0C8.02219 0 6.08879 0.58649 4.4443 1.6853C2.79981 2.78412 1.51808 4.3459 0.761205 6.17317C0.00432903 8.00043 -0.193704 10.0111 0.192148 11.9509C0.578 13.8907 1.53041 15.6725 2.92893 17.0711C4.32746 18.4696 6.10929 19.422 8.0491 19.8079C9.98891 20.1937 11.9996 19.9957 13.8268 19.2388C15.6541 18.4819 17.2159 17.2002 18.3147 15.5557C19.4135 13.9112 20 11.9778 20 10C19.9971 7.34873 18.9426 4.80688 17.0679 2.93215C15.1931 1.05742 12.6513 0.0029116 10 0ZM10 18C8.41775 18 6.87103 17.5308 5.55544 16.6518C4.23985 15.7727 3.21447 14.5233 2.60896 13.0615C2.00346 11.5997 1.84504 9.99113 2.15372 8.43928C2.4624 6.88743 3.22433 5.46197 4.34315 4.34315C5.46197 3.22433 6.88743 2.4624 8.43928 2.15372C9.99113 1.84504 11.5997 2.00346 13.0615 2.60896C14.5233 3.21447 15.7727 4.23985 16.6518 5.55544C17.5308 6.87103 18 8.41775 18 10C17.9974 12.1209 17.1537 14.1542 15.6539 15.6539C14.1542 17.1537 12.1209 17.9974 10 18ZM10 9.5C9.73478 9.5 9.48043 9.60536 9.29289 9.79289C9.10536 9.98043 9 10.2348 9 10.5V13.5C9 13.7652 9.10536 14.0196 9.29289 14.2071C9.48043 14.3946 9.73478 14.5 10 14.5C10.2652 14.5 10.5196 14.3946 10.7071 14.2071C10.8946 14.0196 11 13.7652 11 13.5V10.5C11 10.2348 10.8946 9.98043 10.7071 9.79289C10.5196 9.60536 10.2652 9.5 10 9.5ZM10 5.5C9.75277 5.5 9.5111 5.57331 9.30554 5.71066C9.09998 5.84802 8.93976 6.04324 8.84515 6.27165C8.75054 6.50005 8.72579 6.75139 8.77402 6.99386C8.82225 7.23634 8.9413 7.45907 9.11612 7.63388C9.29093 7.8087 9.51366 7.92775 9.75614 7.97598C9.99861 8.02421 10.2499 7.99946 10.4784 7.90485C10.7068 7.81024 10.902 7.65003 11.0393 7.44446C11.1767 7.2389 11.25 6.99723 11.25 6.75C11.25 6.41848 11.1183 6.10054 10.8839 5.86612C10.6495 5.6317 10.3315 5.5 10 5.5Z" fill="black"/>
</svg>
