<svg width="20" height="20" viewBox="0 0 20 20" fill="none" xmlns="http://www.w3.org/2000/svg">
<path d="M2 20C1.45 20 0.979002 19.804 0.587002 19.412C0.195002 19.02 -0.000664969 18.5493 1.69779e-06 18V2C1.69779e-06 1.45 0.196001 0.979002 0.588001 0.587002C0.980001 0.195002 1.45067 -0.000664969 2 1.69779e-06H9.175C9.44167 1.69779e-06 9.696 0.0500018 9.938 0.150002C10.18 0.250002 10.3923 0.391668 10.575 0.575002L15.425 5.425C15.6083 5.60834 15.75 5.821 15.85 6.063C15.95 6.305 16 6.559 16 6.825V10H14V7H10C9.71667 7 9.479 6.904 9.287 6.712C9.095 6.52 8.99934 6.28267 9 6V2H2V18H8V20H2ZM14.3 12.525L15.375 13.6L11.5 17.45V18.5H12.55L16.425 14.65L17.475 15.7L13.475 19.7C13.375 19.8 13.2623 19.875 13.137 19.925C13.0117 19.975 12.8827 20 12.75 20H10.5C10.3667 20 10.25 19.95 10.15 19.85C10.05 19.75 10 19.6333 10 19.5V17.25C10 17.1167 10.025 16.9873 10.075 16.862C10.125 16.7367 10.2 16.6243 10.3 16.525L14.3 12.525ZM17.475 15.7L14.3 12.525L15.75 11.075C15.9333 10.8917 16.1667 10.8 16.45 10.8C16.7333 10.8 16.9667 10.8917 17.15 11.075L18.925 12.85C19.1083 13.0333 19.2 13.2667 19.2 13.55C19.2 13.8333 19.1083 14.0667 18.925 14.25L17.475 15.7Z" fill="black"/>
</svg>
