<svg width="710" height="549" viewBox="0 0 710 549" fill="none" xmlns="http://www.w3.org/2000/svg">
<path d="M578.831 380.055C581.815 372.586 580.326 364.372 575.096 358.404L486.242 265.816C478.773 258.347 464.591 258.347 457.122 265.816L429.496 294.936L374.991 237.441C367.522 229.973 353.34 229.973 345.871 237.441L257.762 332.269C277.923 347.952 294.35 368.108 304.803 392.748H560.91C568.379 392.748 575.847 387.523 578.831 380.055Z" fill="black"/>
<path d="M513.124 162.029C513.124 186.357 493.4 206.081 469.072 206.081C444.744 206.081 425.02 186.357 425.02 162.029C425.02 137.701 444.744 117.977 469.072 117.977C493.4 117.977 513.124 137.701 513.124 162.029Z" fill="black"/>
<path d="M682.617 0.00188192H124.857C109.925 0.00188192 97.9766 11.9497 97.9766 26.8819V128.429C110.669 123.949 124.857 122.455 139.045 122.455C143.524 122.455 148.003 122.455 151.737 123.199V54.506H654.991V454.719H316.751L322.725 502.506V508.48H682.618C697.55 508.48 709.498 495.787 709.498 481.6L709.493 26.88C709.493 11.948 697.545 0 682.613 0L682.617 0.00188192Z" fill="black"/>
<path d="M224.164 364.375C201.018 383.042 171.148 394.99 139.044 394.99C106.94 394.99 77.0702 383.792 53.9236 364.375C30.0276 380.058 12.8556 404.692 9.1209 434.563L0.162491 506.99C-1.33231 521.178 7.63129 533.87 21.0692 536.854C58.4025 544.322 97.9758 548.052 139.042 548.052C180.11 548.052 219.682 544.317 257.016 536.854C271.204 533.869 279.417 521.171 277.923 506.99L268.964 434.563C265.23 404.694 248.057 379.308 224.161 364.375H224.164Z" fill="black"/>
<path d="M230.137 258.349C230.137 308.661 189.35 349.442 139.044 349.442C88.7369 349.442 47.9502 308.661 47.9502 258.349C47.9502 208.042 88.7369 167.261 139.044 167.261C189.35 167.261 230.137 208.042 230.137 258.349Z" fill="black"/>
</svg>
