<svg width="747" height="747" viewBox="0 0 747 747" fill="none" xmlns="http://www.w3.org/2000/svg">
<path fill-rule="evenodd" clip-rule="evenodd" d="M480.599 369.692L447.812 401.801C422.73 426.395 408.312 460.645 408.312 495.785H338.312C338.312 441.979 360.386 389.504 398.812 351.799L431.339 319.949C449.938 301.329 458.219 275.147 453.834 248.34C448.563 216.257 422.823 189.257 391.303 182.679C365.959 177.382 341.298 183.215 321.861 199.059C302.658 214.647 291.647 237.767 291.647 262.455H221.647C221.647 216.58 242.084 173.695 277.715 144.715C313.319 115.756 359.851 104.72 405.579 114.147C465.735 126.678 512.891 176.053 522.902 236.996C530.975 286.351 515.553 334.693 480.599 369.693M373.312 635.787C347.553 635.787 326.646 614.901 326.646 589.12C326.646 563.36 347.553 542.453 373.312 542.453C399.094 542.453 419.979 563.36 419.979 589.12C419.979 614.901 399.094 635.787 373.312 635.787ZM373.333 0C167.133 0 0 167.133 0 373.333C0 579.507 167.133 746.667 373.333 746.667C579.507 746.667 746.667 579.507 746.667 373.333C746.667 167.133 579.507 0 373.333 0Z" fill="black"/>
</svg>
