<svg width="613" height="747" viewBox="0 0 613 747" fill="none" xmlns="http://www.w3.org/2000/svg">
<path d="M126.242 653.855H124.893C124.565 653.777 124.263 653.616 124.018 653.382C123.669 653.225 123.346 653.012 123.065 652.746C122.742 652.48 122.471 652.158 122.274 651.793L121.794 651.158C114.55 637.636 102.737 627.131 88.4664 621.507C74.1957 615.882 58.393 615.512 43.873 620.455C29.353 625.398 17.061 635.335 9.18503 648.496C1.3101 661.663 -1.6379 677.193 0.872502 692.324C3.3777 707.455 11.1798 721.204 22.8832 731.127C34.581 741.044 49.4245 746.481 64.7632 746.476H560.656V653.94H126.243L126.242 653.855Z" fill="black"/>
<path d="M64.8425 605.562C86.2332 605.577 106.635 614.567 121.083 630.343V60.4898C121.098 38.8911 109.588 18.9271 90.8945 8.12047C72.1972 -2.69206 49.1545 -2.70766 30.4465 8.07881C11.7332 18.8652 0.20119 38.8135 0.186523 60.4121V641.625C14.0559 619.235 38.5039 605.594 64.8425 605.562Z" fill="black"/>
<path d="M193.216 225.389H347.949V374.482H193.216V225.389Z" fill="black"/>
<path d="M131.575 48.4163C132.273 52.3747 132.643 56.3851 132.69 60.4111V642.411H612.783V48.4111L131.575 48.4163ZM187.179 142.703H557.659C560.862 142.703 563.456 145.297 563.456 148.5C563.456 151.703 560.862 154.297 557.659 154.297H187.419C184.216 154.297 181.617 151.703 181.617 148.5C181.617 145.297 184.216 142.703 187.419 142.703H187.179ZM181.46 219.672C181.46 216.5 184.007 213.917 187.179 213.875H353.673C355.209 213.875 356.688 214.485 357.771 215.573C358.86 216.657 359.469 218.136 359.469 219.672V380.206C359.469 381.747 358.86 383.221 357.771 384.31C356.688 385.393 355.209 386.008 353.673 386.008H187.419C185.888 386.008 184.419 385.393 183.346 384.305C182.268 383.211 181.674 381.737 181.7 380.206L181.46 219.672ZM559.794 562.192H184.634C181.431 562.192 178.837 559.593 178.837 556.39C178.837 553.187 181.431 550.593 184.634 550.593H559.794C562.997 550.593 565.591 553.187 565.591 556.39C565.591 559.593 562.997 562.192 559.794 562.192ZM559.794 510.004H184.634C181.462 510.004 178.879 507.452 178.837 504.286C178.837 501.083 181.431 498.483 184.634 498.483H559.794C562.966 498.53 565.513 501.114 565.513 504.286C565.513 505.801 564.908 507.254 563.835 508.327C562.763 509.4 561.309 510.004 559.794 510.004ZM559.794 457.895H184.634C181.431 457.895 178.837 455.296 178.837 452.098C178.878 448.926 181.462 446.374 184.634 446.374H559.794C562.95 446.374 565.513 448.937 565.513 452.098C565.513 455.27 562.966 457.853 559.794 457.895ZM559.794 390.775H393.86C390.689 390.775 388.105 388.228 388.063 385.056C388.063 381.853 390.657 379.254 393.86 379.254H559.794C562.966 379.301 565.513 381.884 565.513 385.056C565.513 386.572 564.908 388.025 563.835 389.098C562.763 390.171 561.309 390.775 559.794 390.775ZM559.794 335.65L393.86 335.644C390.689 335.65 388.105 333.098 388.063 329.926C388.063 326.728 390.657 324.129 393.86 324.129H559.794C562.966 324.17 565.513 326.754 565.513 329.926C565.513 331.446 564.908 332.9 563.835 333.973C562.763 335.046 561.309 335.644 559.794 335.644L559.794 335.65ZM559.794 280.524L393.86 280.519C390.689 280.519 388.105 277.972 388.063 274.8C388.063 271.597 390.657 269.003 393.86 269.003H559.794C562.966 269.045 565.513 271.628 565.513 274.8C565.513 276.316 564.908 277.774 563.835 278.847C562.763 279.92 561.309 280.519 559.794 280.519L559.794 280.524ZM559.794 225.399L393.86 225.394C390.689 225.394 388.105 222.847 388.063 219.675C388.063 216.472 390.657 213.878 393.86 213.878H559.794C562.966 213.92 565.513 216.503 565.513 219.675C565.513 221.191 564.908 222.644 563.835 223.717C562.763 224.79 561.309 225.394 559.794 225.394L559.794 225.399Z" fill="black"/>
</svg>
