<svg id="Layer_1" data-name="Layer 1" xmlns="http://www.w3.org/2000/svg" viewBox="0 0 384 384"><defs><style>.cls-1{fill:#fff;}</style></defs><path class="cls-1" d="M11.6,280.83V68.25c2.24,10.85,7.47,20.1,14.71,28.44,5.73,6.58,11,13.57,16.45,20.37l14.87,18.55c.51-.24.8-.29.94-.46C71.11,119.48,84.24,104.23,96,88c17.08-23.51,7.76-57-18.61-69.32-4-1.86-8.37-2.91-12.57-4.34h132a5.24,5.24,0,0,1-1.28.67c-35.56,7.38-50.35,47.5-28,76,5.69,7.27,11.52,14.43,17.3,21.63,6.14,7.67,12.3,15.31,18.4,22.91.53-.24.81-.28,1-.45C216.78,119.46,229.92,104.2,241.7,88c17.09-23.56,7.71-57-18.73-69.32-4-1.86-8.41-2.88-12.62-4.29h132a4.84,4.84,0,0,1-1.25.69c-35.65,7.48-50.27,47.88-27.61,76.37q8.73,11,17.54,21.89c6,7.47,12,14.92,18.13,22.56.73-.79,1.26-1.29,1.71-1.85,11.46-14.3,23.19-28.41,34.23-43,3.88-5.14,6.12-11.54,9-17.44a32.79,32.79,0,0,0,1.54-5.28V280.83c-2.13-.73-4.25-2.11-6.38-2.11q-67.5-.2-135-.1h-3.92c-1.27,9.78.18,13.65,10.95,13.47,20.62-.36,41.25-.2,61.87,0a19.62,19.62,0,0,1,18.13,26.61c-3.08,8.13-10.19,12.78-20,12.84-12.37.09-24.74,0-37.12.05-4.93,0-7.39,2.26-7.73,6.71-.95,12.13-9,19.64-21.06,19.7-8,0-16,0-24,0-4.84,0-7.9,2.56-7.95,6.53-.05,3.78,2.93,6.52,7.42,6.83,10.29.73,17.36,7.25,18.88,17.43.18,1.19.4,2.38.61,3.61a18.34,18.34,0,0,0,2.11-.23C313.94,377,361,342.35,393.29,287.82c.68-1.14,1.53-2.17,2.31-3.25V398.35H11.6V284.57c.77,1.08,1.63,2.11,2.29,3.24q42.29,72,121.46,98.78c7,2.36,14.22,4.11,21.47,6.18.48-5.85-1.76-8.2-7.36-8.56a19.78,19.78,0,0,1-18.64-19.32A19.56,19.56,0,0,1,149.2,345c5-.29,10,0,15-.32a6.45,6.45,0,0,0,6.36-6.92c-.2-3.51-2.82-5.95-6.71-6.21-1.25-.08-2.5,0-3.75,0q-36.73,0-73.47,0c-6.82,0-12.9-1.73-17.33-7.19-5.07-6.26-6.14-13.35-2.83-20.67s9.43-11.53,17.7-11.63c13-.16,26,0,39-.07,4.42,0,7.29-2.28,7.62-6.09.2-2.31,0-4.65,0-7.11-1.15-.06-1.88-.14-2.61-.14q-55.66,0-111.32.09C15.09,278.72,13.35,280.1,11.6,280.83Zm132.44-2a33.35,33.35,0,0,0-.16,4c1.08,13.43-9.21,23-22.51,22.3-12-.63-24-.19-36-.1-4.67,0-7.82,3-7.68,6.93s3.14,6.36,7.7,6.38c8.12,0,16.24,0,24.37,0,17.86,0,35.73-.09,53.6,0,10.78.08,19.43,7.93,20.08,17.83.74,11.21-6.18,20.1-17.28,21.54-4.67.6-9.48.21-14.22.25-4.91.05-7.9,2.45-8,6.46s2.9,6.62,7.69,6.92a19.37,19.37,0,0,1,18.42,16.6c.38,2.3.49,4.65.73,7.1a208.45,208.45,0,0,0,65.53,0c1-8-.78-10.22-8.49-10.9-9.24-.82-17.12-9.14-17.52-18.48a19.49,19.49,0,0,1,19-20.72c8.11-.28,16.24-.07,24.36-.09,7.22,0,9.11-1.76,9.76-8.83a18.21,18.21,0,0,1,.6-3.28c2.6-8.93,10.07-14.4,19.95-14.46,12.87-.08,25.74,0,38.61-.06a6.62,6.62,0,0,0,6.83-6.1,6.86,6.86,0,0,0-5.9-7.06,22.17,22.17,0,0,0-3.74-.16c-21,0-42,0-63,0-10.54,0-18.25-6.72-19.84-17.14-.44-2.9-.37-5.88-.54-9Zm105.82-79.28H157.43v65.84h92.43ZM64.72,265.39V261c0-11.35,0-22.7,0-34.05,0-9.13,5.23-14.24,14.47-14.28H90.66c1.06-7.27.28-8.51-6.06-10.4L33.78,187.12c-6.7-2-9-.29-9,6.71q0,33.87,0,67.72c0,1.21.11,2.42.17,3.84Zm277.75,0c1.58.11,2.67.24,3.77.24,10.74,0,21.49-.09,32.23.08,3.1.05,4-.83,4-4-.12-22.69-.05-45.39-.07-68.08,0-6.74-2.42-8.51-8.85-6.59l-51.19,15.29c-6.14,1.83-7.19,3.67-5.68,10.32h10.38c10.51,0,15.38,4.83,15.39,15.25C342.48,240.25,342.47,252.58,342.47,265.36Zm-264.59-.05H144c.07-1.38.17-2.48.17-3.58,0-10.73-.11-21.46.07-32.18.06-3.11-.86-4-4-4-19.62.13-39.24.06-58.86.08-1.18,0-2.37.14-3.52.22Zm251.33-39.38a13.59,13.59,0,0,0-1.87-.27c-20.5,0-41,0-61.49-.06-2.44,0-2.88,1-2.86,3.15.07,11.48,0,22.95.05,34.43a12,12,0,0,0,.35,2.06H329.5c0-12.82,0-25.28,0-37.75A9.1,9.1,0,0,0,329.21,225.93ZM210,186.15V159.9H197.21v26.25ZM38.1,174c0-8.43,0-17-.09-25.59a2.81,2.81,0,0,0-1.94-1.93c-3.58-.2-7.18-.09-11-.09v26.57Zm344.3-1.08c0-7.9.05-16.19-.08-24.47a2.92,2.92,0,0,0-1.92-2c-10.33-1.7-11.33-.83-11.33,9.42V174Zm-39.68-6.36v16l12.9-3.83v-12.2Zm-278.18,0H51.6v12.21l12.94,3.78Zm106.13,19.78c3.93,0,7.53.1,11.12-.09a2.84,2.84,0,0,0,2-1.89c.2-3.69.09-7.4.09-11.13H170.67Zm65.76-.22V173H223.74c-2,13.07-1.34,13.78,10.92,13.34C235.15,186.28,235.63,186.19,236.43,186.09Z" transform="translate(-11.6 -14.35)"/><path d="M395.6,284.57c-.78,1.08-1.63,2.11-2.31,3.25C361,342.35,313.94,377,252.39,392.13a18.34,18.34,0,0,1-2.11.23c-.21-1.23-.43-2.42-.61-3.61-1.52-10.18-8.59-16.7-18.88-17.43-4.49-.31-7.47-3.05-7.42-6.83,0-4,3.11-6.52,7.95-6.53,8,0,16,0,24,0,12.1-.06,20.11-7.57,21.06-19.7.34-4.45,2.8-6.69,7.73-6.71,12.38-.06,24.75,0,37.12-.05,9.84-.06,16.95-4.71,20-12.84A19.62,19.62,0,0,0,323.13,292c-20.62-.15-41.25-.31-61.87,0-10.77.18-12.22-3.69-10.95-13.47h3.92q67.5,0,135,.1c2.13,0,4.25,1.38,6.38,2.11Z" transform="translate(-11.6 -14.35)"/><path d="M11.6,280.83c1.75-.73,3.49-2.11,5.25-2.11q55.67-.18,111.32-.09c.73,0,1.46.08,2.61.14,0,2.46.16,4.8,0,7.11-.33,3.81-3.2,6.07-7.62,6.09-13,0-26-.09-39,.07-8.27.1-14.34,4.19-17.7,11.63s-2.24,14.41,2.83,20.67c4.43,5.46,10.51,7.21,17.33,7.19q36.74-.06,73.47,0c1.25,0,2.5,0,3.75,0,3.89.26,6.51,2.7,6.71,6.21a6.45,6.45,0,0,1-6.36,6.92c-5,.33-10,0-15,.32a19.56,19.56,0,0,0-18.38,19.88,19.78,19.78,0,0,0,18.64,19.32c5.6.36,7.84,2.71,7.36,8.56-7.25-2.07-14.46-3.82-21.47-6.18Q56.17,359.86,13.89,287.81c-.66-1.13-1.52-2.16-2.29-3.24Z" transform="translate(-11.6 -14.35)"/><path d="M210.35,14.35c4.21,1.41,8.61,2.43,12.62,4.29C249.41,30.92,258.79,64.4,241.7,88c-11.78,16.24-24.92,31.5-37.46,47.19-.14.17-.42.21-1,.45-6.1-7.6-12.26-15.24-18.4-22.91-5.78-7.2-11.61-14.36-17.3-21.63-22.37-28.54-7.58-68.66,28-76a5.24,5.24,0,0,0,1.28-.67Zm-6.67,20A26.31,26.31,0,0,0,203.32,87a26.34,26.34,0,0,0,26.61-26.19A26,26,0,0,0,203.68,34.37Z" transform="translate(-11.6 -14.35)"/><path d="M395.6,68.25a32.79,32.79,0,0,1-1.54,5.28c-2.84,5.9-5.08,12.3-9,17.44-11,14.63-22.77,28.74-34.23,43-.45.56-1,1.06-1.71,1.85C343,128.22,337,120.77,331,113.3q-8.79-10.93-17.54-21.89c-22.66-28.49-8-68.89,27.61-76.37a4.84,4.84,0,0,0,1.25-.69h13.5a8.47,8.47,0,0,0,1.65.71c12.62,2.33,22.92,8.64,29.72,19.37,3.75,5.93,5.64,13,8.38,19.59Zm-20.06-7.68a26,26,0,0,0-26.42-26.2,26.26,26.26,0,0,0-26.3,26.46,26.36,26.36,0,0,0,52.72-.26Z" transform="translate(-11.6 -14.35)"/><path d="M64.85,14.35c4.2,1.43,8.57,2.48,12.57,4.34C103.79,31,113.11,64.5,96,88c-11.79,16.22-24.92,31.47-37.46,47.14-.14.17-.43.22-.94.46L42.76,117.06C37.3,110.26,32,103.27,26.31,96.69,19.07,88.35,13.84,79.1,11.6,68.25V54a8.47,8.47,0,0,0,.71-1.65c2.38-12.72,8.83-23,19.7-29.88,5.84-3.67,12.85-5.49,19.34-8.14Zm-6.74,20A26,26,0,0,0,31.65,60.53,26.36,26.36,0,1,0,58.11,34.37Z" transform="translate(-11.6 -14.35)"/><path class="cls-1" d="M51.35,14.35C44.86,17,37.85,18.82,32,22.49c-10.87,6.83-17.32,17.16-19.7,29.88A8.47,8.47,0,0,1,11.6,54V14.35Z" transform="translate(-11.6 -14.35)"/><path class="cls-1" d="M395.6,54c-2.74-6.57-4.63-13.66-8.38-19.59-6.8-10.73-17.1-17-29.72-19.37a8.47,8.47,0,0,1-1.65-.71H395.6Z" transform="translate(-11.6 -14.35)"/><path d="M144,278.79h92.43c.17,3.09.1,6.07.54,9,1.59,10.42,9.3,17.11,19.84,17.14,21,.07,42,0,63,0a22.17,22.17,0,0,1,3.74.16,6.86,6.86,0,0,1,5.9,7.06,6.62,6.62,0,0,1-6.83,6.1c-12.87.07-25.74,0-38.61.06-9.88.06-17.35,5.53-19.95,14.46a18.21,18.21,0,0,0-.6,3.28c-.65,7.07-2.54,8.8-9.76,8.83-8.12,0-16.25-.19-24.36.09a19.49,19.49,0,0,0-19,20.72c.4,9.34,8.28,17.66,17.52,18.48,7.71.68,9.52,2.92,8.49,10.9a208.45,208.45,0,0,1-65.53,0c-.24-2.45-.35-4.8-.73-7.1a19.37,19.37,0,0,0-18.42-16.6c-4.79-.3-7.8-3-7.69-6.92s3.09-6.41,8-6.46c4.74,0,9.55.35,14.22-.25,11.1-1.44,18-10.33,17.28-21.54-.65-9.9-9.3-17.75-20.08-17.83-17.87-.13-35.74,0-53.6,0-8.13,0-16.25,0-24.37,0-4.56,0-7.57-2.57-7.7-6.38s3-6.9,7.68-6.93c12-.09,24-.53,36,.1,13.3.7,23.59-8.87,22.51-22.3A33.35,33.35,0,0,1,144,278.79Z" transform="translate(-11.6 -14.35)"/><path d="M249.86,199.51v65.84H157.43V199.51ZM197.08,252h12.83V239.34H197.08Zm26.76,0h12.6V239.32h-12.6Zm-53.13,0h12.53V239.27H170.71Zm26.41-26.6H210V212.93H197.12ZM236.47,213H223.9V225.4h12.57ZM170.69,225.4h12.68V213H170.69Z" transform="translate(-11.6 -14.35)"/><path d="M64.72,265.39H24.94c-.06-1.42-.17-2.63-.17-3.84q0-33.86,0-67.72c0-7,2.31-8.71,9-6.71L84.6,202.26c6.34,1.89,7.12,3.13,6.06,10.4H79.2c-9.24,0-14.45,5.15-14.47,14.28,0,11.35,0,22.7,0,34.05ZM38.33,251.93H51V239.24H38.33ZM51,225.41V212.87H38.34v12.54Z" transform="translate(-11.6 -14.35)"/><path d="M342.47,265.36c0-12.78,0-25.11,0-37.45,0-10.42-4.88-15.24-15.39-15.25H316.7c-1.51-6.65-.46-8.49,5.68-10.32l51.19-15.29c6.43-1.92,8.84-.15,8.85,6.59,0,22.69-.05,45.39.07,68.08,0,3.13-.92,4-4,4-10.74-.17-21.49-.06-32.23-.08C345.14,265.6,344.05,265.47,342.47,265.36Zm26.26-13.3V239.22H356.09v12.84ZM356,225.45h12.77V213H356Z" transform="translate(-11.6 -14.35)"/><path d="M77.88,265.31V225.87c1.15-.08,2.34-.22,3.52-.22,19.62,0,39.24,0,58.86-.08,3.12,0,4,.87,4,4-.18,10.72-.06,21.45-.07,32.18,0,1.1-.1,2.2-.17,3.58Zm52.73-26.1H117.8V252h12.81ZM91.27,251.9h12.64V239.3H91.27Z" transform="translate(-11.6 -14.35)"/><path d="M329.21,225.93a9.1,9.1,0,0,1,.28,1.56c0,12.47,0,24.93,0,37.75H263.39a12,12,0,0,1-.35-2.06c0-11.48,0-23-.05-34.43,0-2.11.42-3.16,2.86-3.15,20.5.07,41,0,61.49.06A13.59,13.59,0,0,1,329.21,225.93ZM289.37,252v-12.7H276.61V252Zm13.9-12.83v12.75h12.52V239.18Z" transform="translate(-11.6 -14.35)"/><path d="M210,186.15H197.21V159.9H210Z" transform="translate(-11.6 -14.35)"/><path d="M38.1,174l-13-1V146.36c3.84,0,7.44-.11,11,.09A2.81,2.81,0,0,1,38,148.38C38.15,157,38.1,165.54,38.1,174Z" transform="translate(-11.6 -14.35)"/><path d="M382.4,172.89,369.07,174V155.85c0-10.25,1-11.12,11.33-9.42a2.92,2.92,0,0,1,1.92,2C382.45,156.7,382.4,165,382.4,172.89Z" transform="translate(-11.6 -14.35)"/><path d="M342.72,166.53h12.9v12.2l-12.9,3.83Z" transform="translate(-11.6 -14.35)"/><path d="M64.54,166.53v16L51.6,178.74V166.53Z" transform="translate(-11.6 -14.35)"/><path d="M170.67,186.31V173.2h13.21c0,3.73.11,7.44-.09,11.13a2.84,2.84,0,0,1-2,1.89C178.2,186.41,174.6,186.31,170.67,186.31Z" transform="translate(-11.6 -14.35)"/><path d="M236.43,186.09c-.8.1-1.28.19-1.77.21-12.26.44-12.87-.27-10.92-13.34h12.69Z" transform="translate(-11.6 -14.35)"/><path class="cls-1" d="M203.68,34.37a26,26,0,0,1,26.25,26.42,26.33,26.33,0,1,1-52.66-.54A26.06,26.06,0,0,1,203.68,34.37Z" transform="translate(-11.6 -14.35)"/><path class="cls-1" d="M375.54,60.57a26.36,26.36,0,1,1-26.42-26.2A26,26,0,0,1,375.54,60.57Z" transform="translate(-11.6 -14.35)"/><path class="cls-1" d="M58.11,34.37a26.26,26.26,0,0,1,26.26,26.5,26.36,26.36,0,0,1-52.72-.34A26,26,0,0,1,58.11,34.37Z" transform="translate(-11.6 -14.35)"/><path class="cls-1" d="M197.08,252V239.34h12.83V252Z" transform="translate(-11.6 -14.35)"/><path class="cls-1" d="M223.84,251.91V239.32h12.6v12.59Z" transform="translate(-11.6 -14.35)"/><path class="cls-1" d="M170.71,252V239.27h12.53V252Z" transform="translate(-11.6 -14.35)"/><path class="cls-1" d="M197.12,225.35V212.93H210v12.42Z" transform="translate(-11.6 -14.35)"/><path class="cls-1" d="M236.47,213V225.4H223.9V213Z" transform="translate(-11.6 -14.35)"/><path class="cls-1" d="M170.69,225.4V213h12.68V225.4Z" transform="translate(-11.6 -14.35)"/><path class="cls-1" d="M38.33,251.93V239.24H51v12.69Z" transform="translate(-11.6 -14.35)"/><path class="cls-1" d="M51,225.41H38.34V212.87H51Z" transform="translate(-11.6 -14.35)"/><path class="cls-1" d="M368.73,252.06H356.09V239.22h12.64Z" transform="translate(-11.6 -14.35)"/><path class="cls-1" d="M356,225.45V213h12.77v12.49Z" transform="translate(-11.6 -14.35)"/><path class="cls-1" d="M130.61,239.21V252H117.8V239.21Z" transform="translate(-11.6 -14.35)"/><path class="cls-1" d="M91.27,251.9V239.3h12.64v12.6Z" transform="translate(-11.6 -14.35)"/><path class="cls-1" d="M289.37,252H276.61v-12.7h12.76Z" transform="translate(-11.6 -14.35)"/><path class="cls-1" d="M303.27,239.18h12.52v12.75H303.27Z" transform="translate(-11.6 -14.35)"/></svg>