<svg width="635" height="607" viewBox="0 0 635 607" fill="none" xmlns="http://www.w3.org/2000/svg">
<path fill-rule="evenodd" clip-rule="evenodd" d="M308.984 183.978V606.818L48.1572 532.036V316.596L252.064 328.273L308.984 183.978Z" fill="black"/>
<path fill-rule="evenodd" clip-rule="evenodd" d="M574.304 174.324L329.558 159.387L390.219 314.72L634.966 299.783L574.304 174.324Z" fill="black"/>
<path fill-rule="evenodd" clip-rule="evenodd" d="M325.984 183.978L382.901 328.271L586.795 316.594V532.034L325.981 606.815L325.984 183.978Z" fill="black"/>
<path fill-rule="evenodd" clip-rule="evenodd" d="M60.6507 174.324L0 299.783L244.76 314.72L305.4 159.387L60.6507 174.324Z" fill="black"/>
<path d="M312.277 0H252.699V151.387L312.277 147.751V0Z" fill="black"/>
<path d="M234.624 86.8711H175.036V156.126L234.624 152.485V86.8711Z" fill="black"/>
<path d="M467.61 4.70312H408.012V151.743L467.61 155.379V4.70312Z" fill="black"/>
<path d="M387.677 36.4307H332.625V147.139L387.677 150.498V36.4307Z" fill="black"/>
</svg>
