<svg width="18" height="18" viewBox="0 0 18 18" fill="none" xmlns="http://www.w3.org/2000/svg">
<path d="M9.00004 4.7373C7.46053 4.7373 6.2054 5.9926 6.2054 7.53195C6.2054 9.07145 7.46053 10.303 9.00004 10.303C10.5395 10.303 11.7947 9.04766 11.7947 7.50832C11.7947 5.96881 10.5395 4.7373 9.00004 4.7373ZM9.00004 9.82947C7.72111 9.82947 6.67897 8.78733 6.67897 7.5084C6.67897 6.22947 7.72111 5.21112 9.00004 5.21112C10.279 5.21112 11.3211 6.25326 11.3211 7.53219C11.3211 8.81096 10.279 9.82947 9.00004 9.82947Z" fill="black"/>
<path d="M9 0C4.02639 0 0 4.02631 0 9C0 13.9737 4.02631 18 9 18C13.9737 18 18 13.9737 18 9C18 4.02631 13.9737 0 9 0ZM4.28705 16.1052C4.28705 13.4288 6.44223 11.1551 9 11.1551C11.5578 11.1551 13.6894 13.4287 13.6894 16.1052C12.3394 17.0052 10.7289 17.5262 8.97645 17.5262C7.22379 17.5262 5.63703 17.0052 4.28705 16.1052ZM14.1632 15.7735C13.9973 12.9789 11.7 10.6818 9 10.6818C6.29996 10.6818 4.00284 12.9791 3.83678 15.7975C1.80008 14.2343 0.473731 11.7712 0.473731 9.00008C0.473731 4.28713 4.28689 0.473893 8.99992 0.473893C13.713 0.473893 17.5261 4.28705 17.5261 9.00008C17.5261 11.7711 16.1998 14.2343 14.1631 15.7735H14.1632Z" fill="black"/>
</svg>
