<svg width="677" height="710" viewBox="0 0 677 710" fill="none" xmlns="http://www.w3.org/2000/svg">
<path d="M493.984 412.161C451.421 421.869 375.265 431.573 348.384 423.359C337.186 418.13 309.556 387.52 294.624 371.094C280.436 355.411 266.998 341.23 254.306 329.282C232.656 307.631 215.478 292.694 184.118 284.479C146.04 274.771 50.465 263.572 23.585 327.042C-4.78972 393.495 -0.311053 566.722 1.18361 689.922C1.18361 700.375 7.90242 709.334 19.1049 709.334H222.945C235.638 709.334 240.117 702.615 240.866 692.907C241.611 686.188 248.335 568.959 252.814 485.334C272.226 504 291.642 519.683 313.293 526.402C333.454 533.121 357.345 535.36 381.986 535.36C440.226 535.36 501.456 522.667 517.133 518.933C546.253 512.215 564.919 483.095 558.201 453.975C552.966 424.105 523.846 405.439 493.982 412.163L493.984 412.161Z" fill="black"/>
<path d="M266.25 123.948C266.25 192.401 210.755 247.896 142.302 247.896C73.8487 247.896 18.3594 192.401 18.3594 123.948C18.3594 55.4947 73.8487 0 142.302 0C210.755 0 266.25 55.4947 266.25 123.948Z" fill="black"/>
<path d="M621.663 11.1986H396.917C366.302 11.1986 341.662 35.8386 341.662 66.4533V222.507C341.662 253.121 366.302 277.761 396.917 277.761H420.062V339.735C420.062 360.641 446.198 370.349 459.635 354.667L526.833 277.76H621.661C652.275 277.76 676.915 253.12 676.915 222.505V66.4519C676.915 35.8373 652.275 11.1973 621.661 11.1973L621.663 11.1986ZM492.491 165.759C492.491 189.655 476.065 210.561 451.423 218.024C449.929 218.024 449.184 218.769 447.689 218.769C442.46 218.769 437.236 215.034 435.741 209.81C433.502 203.092 437.236 196.373 443.955 194.878C458.143 190.399 467.1 179.196 467.1 165.758V154.56H444.699C436.485 154.56 429.767 147.842 429.767 139.628V94.8258C429.767 86.6122 436.486 79.8938 444.699 79.8938H476.803C485.016 79.8938 491.735 86.6126 491.735 94.8258L491.745 165.758L492.491 165.759ZM588.814 165.759C588.814 189.655 572.387 210.561 547.746 218.024C546.251 218.024 545.506 218.769 544.012 218.769C538.782 218.769 533.559 215.034 532.064 209.81C529.824 203.092 533.559 196.373 540.277 194.878C554.465 190.399 563.423 179.196 563.423 165.758V154.56H541.021C532.808 154.56 526.089 147.842 526.089 139.628V94.8258C526.089 86.6122 532.808 79.8938 541.021 79.8938H573.125C581.339 79.8938 588.057 86.6126 588.057 94.8258L588.063 165.758L588.814 165.759Z" fill="black"/>
</svg>
