<svg width="20" height="22" viewBox="0 0 20 22" fill="none" xmlns="http://www.w3.org/2000/svg">
<path d="M10.0117 8.15449C9.31095 8.15449 8.6547 8.42637 8.15782 8.92324C7.66329 9.42012 7.38907 10.0764 7.38907 10.7771C7.38907 11.4779 7.66329 12.1342 8.15782 12.6311C8.6547 13.1256 9.31095 13.3998 10.0117 13.3998C10.7125 13.3998 11.3688 13.1256 11.8656 12.6311C12.3602 12.1342 12.6344 11.4779 12.6344 10.7771C12.6344 10.0764 12.3602 9.42012 11.8656 8.92324C11.6229 8.67869 11.3341 8.4848 11.0158 8.35283C10.6976 8.22085 10.3563 8.15344 10.0117 8.15449ZM19.675 13.674L18.1422 12.3639C18.2149 11.9186 18.2524 11.4639 18.2524 11.0115C18.2524 10.5592 18.2149 10.1021 18.1422 9.65918L19.675 8.34902C19.7908 8.2499 19.8737 8.11787 19.9126 7.97051C19.9515 7.82314 19.9447 7.66741 19.893 7.52402L19.8719 7.46309C19.45 6.28345 18.818 5.19001 18.0063 4.23574L17.9641 4.18652C17.8655 4.07063 17.7341 3.98732 17.5873 3.94757C17.4404 3.90783 17.285 3.91351 17.1414 3.96387L15.2383 4.64121C14.5352 4.06465 13.7524 3.60996 12.9039 3.29356L12.5359 1.30371C12.5082 1.15381 12.4355 1.0159 12.3275 0.908315C12.2195 0.800726 12.0813 0.728547 11.9313 0.701367L11.868 0.689648C10.6492 0.469336 9.36485 0.469336 8.1461 0.689648L8.08282 0.701367C7.93282 0.728547 7.79463 0.800726 7.68662 0.908315C7.57861 1.0159 7.5059 1.15381 7.47814 1.30371L7.10782 3.30293C6.26742 3.62186 5.48453 4.07544 4.78986 4.6459L2.87267 3.96387C2.72915 3.91311 2.57358 3.90722 2.42664 3.94699C2.2797 3.98676 2.14834 4.07031 2.05001 4.18652L2.00782 4.23574C1.19757 5.19103 0.565647 6.2842 0.142199 7.46309L0.121105 7.52402C0.0156363 7.81699 0.102355 8.14512 0.339074 8.34902L1.89064 9.67324C1.81798 10.1139 1.78282 10.5639 1.78282 11.0092C1.78282 11.4592 1.81798 11.9092 1.89064 12.3451L0.343761 13.6693C0.22797 13.7685 0.145097 13.9005 0.106161 14.0479C0.0672258 14.1952 0.0740729 14.351 0.125792 14.4943L0.146886 14.5553C0.571105 15.7342 1.19689 16.824 2.01251 17.7826L2.0547 17.8318C2.15326 17.9477 2.28463 18.031 2.43148 18.0708C2.57834 18.1105 2.73379 18.1049 2.87735 18.0545L4.79454 17.3725C5.49298 17.9467 6.2711 18.4014 7.11251 18.7154L7.48282 20.7147C7.51059 20.8646 7.5833 21.0025 7.69131 21.11C7.79932 21.2176 7.9375 21.2898 8.08751 21.317L8.15079 21.3287C9.38153 21.5502 10.6419 21.5502 11.8727 21.3287L11.9359 21.317C12.086 21.2898 12.2241 21.2176 12.3322 21.11C12.4402 21.0025 12.5129 20.8646 12.5406 20.7147L12.9086 18.7248C13.757 18.4061 14.5399 17.9537 15.243 17.3771L17.1461 18.0545C17.2896 18.1053 17.4452 18.1111 17.5921 18.0714C17.7391 18.0316 17.8704 17.9481 17.9688 17.8318L18.0109 17.7826C18.8266 16.8193 19.4524 15.7342 19.8766 14.5553L19.8977 14.4943C19.9984 14.2037 19.9117 13.8779 19.675 13.674ZM10.0117 14.8975C7.73595 14.8975 5.89142 13.0529 5.89142 10.7771C5.89142 8.50137 7.73595 6.65684 10.0117 6.65684C12.2875 6.65684 14.132 8.50137 14.132 10.7771C14.132 13.0529 12.2875 14.8975 10.0117 14.8975Z" fill="black"/>
</svg>
