<svg width="510" height="700" viewBox="0 0 510 700" fill="none" xmlns="http://www.w3.org/2000/svg">
<path d="M211.153 506.333L316.153 445.667L211.153 385V506.333Z" fill="black"/>
<path d="M461.993 0H136.5C133 0 130.667 1.16667 128.333 3.5L120.167 11.6667H117.833V14L3.5 128.333C1.16667 130.667 0 133 0 136.5V652.167C0 677.833 21 700 47.8333 700H461.993C487.66 700 509.827 679 509.827 652.167V47.8333C508.66 21 487.66 0 461.993 0ZM32.66 131.833L117.827 46.6667V108.5C117.827 121.333 107.327 130.667 95.66 130.667H32.66V131.833ZM428.153 486.5C428.153 530.833 391.987 567 347.653 567H162.16C117.827 567 81.66 530.833 81.66 486.5V389.667C81.66 345.333 117.827 309.167 162.16 309.167H347.653C391.987 309.167 428.153 345.333 428.153 389.667V486.5Z" fill="black"/>
</svg>
