<svg width="619" height="717" viewBox="0 0 619 717" fill="none" xmlns="http://www.w3.org/2000/svg">
<path d="M325.699 545.98C294.636 538.814 271.939 510.59 271.939 478.631C271.762 26.5509 268.861 519.824 271.939 68.1109C264.918 66.4702 256.704 68.7098 252.225 84.3869C243.564 116.043 231.319 142.027 225.496 148.152C219.673 154.423 144.559 269.71 136.043 318.686C127.381 367.664 92.4387 484.299 76.9067 504.299C61.224 524.159 0 554.772 0 554.772V716.799H161.88C161.88 716.799 212.953 679.018 241.921 669.908C266.411 662.294 380.508 583.294 420.375 547.752H341.38C335.859 547.757 330.63 547.164 325.703 545.966L325.699 545.98Z" fill="black"/>
<path d="M585.392 360.66V442.196C593.757 440.701 601.075 436.67 606.747 430.847C614.361 423.378 618.992 412.926 618.992 401.431C618.992 381.265 604.507 364.389 585.392 360.66Z" fill="black"/>
<path d="M585.392 277.327V358.863C593.757 357.368 601.075 353.337 606.747 347.514C614.361 340.045 618.992 329.593 618.992 318.098C618.992 297.937 604.507 281.062 585.392 277.327Z" fill="black"/>
<path d="M585.392 194.14V275.526C593.757 274.031 601.075 270 606.747 264.328C614.361 256.713 618.992 246.26 618.992 234.76C618.992 214.598 604.507 197.724 585.392 194.14Z" fill="black"/>
<path d="M618.992 151.593C618.992 131.432 604.508 114.557 585.394 110.828V192.364C593.758 190.869 601.076 186.838 606.748 181.015C614.363 173.541 618.992 163.088 618.992 151.593Z" fill="black"/>
<path d="M378.859 399.34L431.572 258.967L408.577 197.737C405.739 190.123 396.036 190.123 393.197 197.737L316.588 401.577C328.682 398.89 341.38 397.697 354.369 397.697C362.734 397.697 370.948 398.145 378.859 399.343V399.34Z" fill="black"/>
<path d="M460.552 224.167L393.803 401.727C419.043 407.101 441.292 417.409 456.521 431.743L457.865 432.935C479.668 416.357 509.084 405.758 541.641 403.665L474.141 224.171C471.6 217.458 463.089 217.458 460.553 224.176L460.552 224.167Z" fill="black"/>
<path d="M516.325 0.000265757H341.299C311.283 0.000265757 286.938 24.3443 286.938 54.3603V478.614C286.938 504.302 305.006 525.952 329.053 531.478C332.933 532.373 337.116 532.821 341.298 532.821H516.325C546.341 532.821 570.533 508.477 570.533 478.613V54.36C570.533 24.344 546.34 0.000265757 516.325 0.000265757ZM389.523 18.3336H468.001C471.262 18.3336 473.907 20.9795 473.907 24.2399C473.907 27.5003 471.262 30.1461 468.001 30.1461H389.523C386.262 30.1461 383.616 27.5003 383.616 24.2399C383.616 20.9795 386.262 18.3336 389.523 18.3336ZM468.001 514.6H389.523C386.262 514.6 383.616 511.954 383.616 508.694C383.616 505.434 386.262 502.788 389.523 502.788H468.001C471.262 502.788 473.907 505.434 473.907 508.694C473.913 511.96 471.267 514.6 468.001 514.6ZM555.985 477.57C555.985 481.45 552.85 484.59 549.115 484.59H308.542C304.662 484.59 301.521 481.455 301.521 477.57V55.4096C301.521 51.5293 304.657 48.3888 308.542 48.3888H549.115C552.85 48.3888 555.985 51.5243 555.985 55.4096V477.57Z" fill="black"/>
<path d="M354.379 412.621C340.941 412.621 328.243 414.115 316.447 416.803V469.667H426.807C431.437 459.813 438.156 450.703 446.369 442.636C426.957 424.568 392.905 412.62 354.38 412.62L354.379 412.621Z" fill="black"/>
<path d="M443.672 469.673H541.036V418.752C497.129 422.038 460.396 442.049 443.672 469.673Z" fill="black"/>
<path d="M526.899 172.246V170.194C526.899 160.903 519.419 153.418 510.123 153.418C508.31 153.418 506.503 153.658 504.935 154.262C502.524 146.418 495.399 140.746 486.831 140.746C478.743 140.746 471.987 145.574 469.211 152.454H467.763C459.435 152.454 452.919 159.09 452.919 167.418C452.919 169.231 453.159 170.799 453.643 172.486C447.128 173.934 442.18 179.851 442.18 186.965C442.18 195.293 448.815 201.929 457.144 201.929H529.31C537.519 201.929 544.274 195.293 544.274 186.965C544.274 176.871 533.69 169.97 526.899 172.246Z" fill="black"/>
<path d="M335.632 140.5H407.804C416.012 140.5 422.768 133.865 422.768 125.536C422.768 117.328 416.008 110.572 407.804 110.572C406.96 110.572 406.111 110.572 405.387 110.812V108.76C405.387 99.468 397.908 91.9838 388.611 91.9838C386.799 91.9838 384.992 92.2234 383.424 92.8275C381.013 84.9838 373.888 79.3115 365.32 79.3115C357.231 79.3115 350.476 84.1397 347.7 91.0198H346.252C337.924 91.0198 331.408 97.6553 331.408 105.984C331.408 107.796 331.648 109.364 332.132 111.052C325.611 112.499 320.668 118.411 320.668 125.53C320.668 133.858 327.304 140.5 335.632 140.5Z" fill="black"/>
</svg>
