<svg width="672" height="672" viewBox="0 0 672 672" fill="none" xmlns="http://www.w3.org/2000/svg">
<path d="M655.746 303.917L627.97 283.543C620.668 278.188 615.413 270.506 613.074 261.761C610.73 253.016 611.439 243.735 615.084 235.444L628.954 203.908L628.949 203.913C634.053 192.314 633.323 178.976 626.985 168.001C620.652 157.027 609.464 149.725 596.87 148.345L562.625 144.59C553.625 143.6 545.229 139.574 538.828 133.173C532.427 126.772 528.401 118.376 527.416 109.381L523.661 75.1359H523.656C522.275 62.5369 514.973 51.3545 504 45.0159C493.026 38.6825 479.693 37.9481 468.093 43.0523L436.557 56.9216C428.271 60.5623 418.984 61.2757 410.24 58.932C401.495 56.5883 393.813 51.3331 388.458 44.0307L368.084 16.2547C360.589 6.03587 348.672 0 336.001 0C323.33 0 311.417 6.0364 303.922 16.2547L283.548 44.0307C278.188 51.3328 270.506 56.588 261.761 58.932C253.016 61.2757 243.734 60.5623 235.449 56.9216L203.913 43.0523C192.314 37.9481 178.976 38.6773 168.001 45.0159C157.027 51.3544 149.73 62.5372 148.345 75.1305L144.59 109.381C143.6 118.376 139.574 126.772 133.173 133.173C126.772 139.574 118.381 143.6 109.381 144.59L75.1359 148.345C62.5369 149.725 51.3545 157.027 45.0159 168.001C38.6825 178.975 37.9533 192.313 43.0523 203.913L56.9216 235.449V235.444C60.5675 243.736 61.2757 253.017 58.932 261.761C56.5883 270.506 51.3331 278.188 44.036 283.543L16.2547 303.917C6.03587 311.412 0 323.329 0 336C0 348.671 6.0364 360.588 16.2547 368.083L44.0307 388.457H44.0359C51.3328 393.811 56.588 401.494 58.9319 410.239C61.2756 418.983 60.5673 428.265 56.9215 436.556L43.0521 468.092V468.087C37.9532 479.686 38.6824 493.024 45.0157 503.999C51.3543 514.973 62.5371 522.275 75.1357 523.655L109.381 527.41C118.376 528.399 126.772 532.425 133.173 538.827C139.574 545.228 143.6 553.624 144.59 562.624L148.345 596.869V596.864C149.73 609.463 157.027 620.645 168.001 626.984C178.975 633.317 192.313 634.047 203.913 628.948L235.449 615.078C243.735 611.438 253.017 610.724 261.761 613.068C270.506 615.412 278.188 620.667 283.548 627.969L303.922 655.745C311.417 665.964 323.329 672 336.001 672C348.673 672 360.589 665.963 368.084 655.745L388.458 627.969C393.812 620.667 401.495 615.412 410.24 613.068C418.984 610.724 428.27 611.438 436.557 615.078L468.093 628.948C479.692 634.052 493.025 633.317 504 626.984C514.974 620.645 522.276 609.463 523.656 596.864L527.411 562.619L527.416 562.624C528.4 553.624 532.426 545.228 538.828 538.827C545.234 532.425 553.625 528.399 562.625 527.41L596.87 523.655C609.464 522.274 620.651 514.972 626.985 503.999C633.323 493.025 634.053 479.687 628.948 468.087L615.079 436.551L615.084 436.556C611.438 428.264 610.73 418.983 613.074 410.239C615.412 401.494 620.668 393.812 627.97 388.457L655.746 368.083C665.965 360.588 672.001 348.671 672.001 336C672.001 323.329 665.964 311.412 655.746 303.917ZM490.413 351.808C475.225 478.553 376.47 526.715 335.999 534.448C295.535 526.714 196.786 478.547 181.586 351.808L169.758 253.131C169.534 251.25 170.524 249.433 172.221 248.605L334.048 169.662C335.277 169.063 336.715 169.063 337.944 169.662L499.771 248.605C501.474 249.433 502.463 251.25 502.234 253.131L490.413 351.808ZM307.906 374.844L402.327 280.428C405.905 276.688 410.739 274.391 415.901 273.985C421.062 273.574 426.198 275.074 430.322 278.204C434.791 281.829 437.51 287.178 437.801 292.928C438.098 298.673 435.947 304.277 431.879 308.344L322.275 417.948C318.463 421.761 313.296 423.901 307.906 423.901C302.515 423.901 297.349 421.76 293.542 417.948L240.938 365.344C237.198 361.761 234.907 356.933 234.495 351.771C234.084 346.609 235.589 341.479 238.714 337.349C242.344 332.886 247.693 330.167 253.443 329.87C259.188 329.573 264.792 331.729 268.859 335.792L307.906 374.844Z" fill="black"/>
</svg>
